<?xml version="1.0" standalone="no"?>
<!DOCTYPE svg PUBLIC "-//W3C//DTD SVG 20010904//EN"
 "http://www.w3.org/TR/2001/REC-SVG-20010904/DTD/svg10.dtd">
<svg version="1.0" xmlns="http://www.w3.org/2000/svg"
 width="1228.000000pt" height="1280.000000pt" viewBox="0 0 1228.000000 1280.000000"
 preserveAspectRatio="xMidYMid meet">
<metadata>
Created by potrace 1.15, written by Peter Selinger 2001-2017
</metadata>
<g transform="translate(0.000000,1280.000000) scale(0.100000,-0.100000)"
fill="#607d8b" stroke="none">
<path d="M9944 12779 c-51 -56 10 -220 165 -439 145 -205 189 -326 198 -540 6
-135 -9 -249 -46 -371 l-21 -65 -64 4 c-81 5 -125 -9 -174 -58 l-39 -39 -120
132 c-551 603 -897 823 -1348 856 -395 30 -834 -90 -1480 -404 -191 -93 -197
-95 -425 -129 -91 -14 -190 -30 -220 -36 -186 -35 -310 -102 -356 -193 -22
-42 -14 -165 15 -230 l21 -49 -44 -51 c-80 -96 -132 -217 -120 -282 5 -30 4
-30 -113 -89 -596 -295 -1030 -702 -1100 -1029 -24 -116 -14 -170 61 -322 72
-146 86 -197 86 -324 0 -147 -42 -250 -126 -310 -32 -23 -47 -26 -114 -26 -70
0 -84 4 -156 40 -147 75 -236 191 -270 355 -35 168 22 393 155 618 29 48 44
82 36 82 -25 0 -214 -60 -294 -94 -283 -119 -437 -284 -466 -499 -3 -27 -12
-50 -18 -51 -7 -2 -43 -9 -82 -16 -38 -7 -121 -29 -183 -49 l-113 -37 -172
139 c-233 188 -212 162 -188 235 48 142 34 297 -42 452 -47 97 -49 120 -16
258 40 174 112 316 223 442 125 141 156 246 84 290 -89 54 -346 23 -458 -55
-54 -37 -86 -104 -114 -241 -29 -136 -68 -223 -123 -275 -33 -32 -48 -38 -112
-47 -44 -7 -99 -23 -136 -41 l-61 -30 -289 -5 c-298 -4 -425 -16 -630 -58
-284 -58 -503 -168 -520 -262 -5 -23 -20 -40 -57 -66 -28 -19 -66 -57 -83 -85
-26 -40 -41 -53 -76 -63 -76 -23 -202 -87 -264 -135 -96 -72 -155 -170 -155
-256 0 -53 43 -134 89 -165 89 -62 169 -62 356 0 277 90 471 127 675 127 225
0 354 -39 590 -180 74 -44 155 -90 178 -102 56 -29 183 -61 238 -61 40 0 60
-12 293 -186 l250 -185 -77 -92 c-104 -124 -163 -216 -238 -371 -281 -579
-298 -1350 -43 -1859 17 -34 39 -73 49 -87 27 -38 66 -172 94 -321 32 -167 43
-241 106 -714 73 -551 103 -704 140 -728 17 -10 148 74 345 222 344 257 688
599 869 864 22 31 40 56 41 55 4 -4 -22 -296 -39 -448 -15 -133 -22 -232 -51
-730 -24 -411 -54 -607 -126 -823 -131 -397 -405 -713 -844 -971 -160 -94
-178 -108 -240 -183 -223 -267 -184 -530 136 -909 l79 -93 -21 -48 c-66 -153
-91 -321 -66 -439 22 -104 53 -161 128 -237 72 -72 161 -122 276 -152 87 -24
273 -44 404 -45 147 0 221 18 398 100 160 74 291 118 465 156 102 22 134 25
155 17 14 -6 67 -28 116 -49 235 -98 544 -155 995 -184 224 -15 220 -14 220
-48 0 -47 29 -117 66 -160 120 -141 338 -66 527 182 49 64 56 70 122 91 39 12
99 36 133 54 l64 32 -9 -43 c-25 -127 0 -217 76 -275 51 -39 108 -57 264 -84
159 -27 245 -56 415 -138 78 -39 173 -80 210 -91 228 -71 505 -9 948 211 l161
81 18 51 c37 113 27 352 -20 498 l-15 46 77 79 c95 97 154 198 204 349 47 142
63 234 63 370 0 209 -38 275 -184 314 -108 29 -229 85 -324 151 -104 72 -111
86 -22 45 98 -46 213 -75 297 -75 57 0 69 3 89 25 43 46 28 115 -108 521 -67
197 -137 420 -156 494 -39 155 -83 367 -92 443 l-5 52 146 212 147 211 37 -15
c78 -33 169 -54 242 -54 147 -2 238 67 282 212 4 13 22 18 79 21 172 9 322
144 344 309 5 36 11 49 23 49 47 0 96 26 154 80 211 197 171 488 -104 758
l-71 70 175 254 175 254 84 0 c64 1 95 6 136 24 78 34 142 117 142 184 0 20
12 33 53 59 28 19 60 43 70 55 17 19 21 19 52 6 44 -18 126 -18 169 0 80 33
158 135 191 249 14 48 20 57 40 57 87 0 260 94 348 189 44 46 97 139 97 168 0
6 28 20 61 32 164 55 289 193 319 352 6 30 8 71 4 91 -5 32 0 47 31 98 84 138
121 286 112 440 -8 118 -27 192 -77 295 -227 461 -842 566 -1210 206 -102
-100 -193 -269 -215 -398 -6 -36 -11 -43 -44 -56 -90 -36 -149 -127 -158 -241
-5 -62 -7 -65 -50 -98 -90 -66 -153 -185 -153 -286 0 -39 -6 -52 -48 -101 -83
-95 -141 -180 -185 -270 -35 -72 -58 -102 -143 -186 -125 -123 -157 -182 -162
-295 -3 -55 1 -90 15 -132 l19 -56 -145 -215 -145 -215 -43 -6 c-157 -21 -322
-213 -379 -441 -13 -51 -20 -65 -32 -60 -8 3 -37 -2 -63 -10 -27 -9 -53 -14
-58 -11 -5 3 6 22 25 43 44 48 58 92 52 168 -13 153 -158 311 -351 384 -89 33
-145 64 -278 152 -113 76 -289 231 -289 254 0 6 63 22 140 37 459 90 790 286
915 543 49 100 65 172 65 296 0 274 -143 562 -413 831 -64 65 -121 118 -126
118 -4 0 -11 -89 -14 -197 -10 -304 -48 -480 -131 -606 -73 -111 -149 -150
-291 -151 -82 0 -96 2 -156 32 -117 56 -206 165 -255 312 -25 76 -26 245 -1
316 34 99 68 136 284 315 240 199 385 341 428 419 29 53 30 60 29 175 0 88 -6
143 -22 209 l-23 89 24 26 c13 14 33 40 45 57 16 23 35 35 69 43 100 25 181
96 248 216 35 62 106 238 145 360 34 106 33 106 219 99 151 -6 376 5 526 27
415 60 763 218 945 429 254 296 276 657 70 1174 -50 128 -144 308 -253 489
-217 357 -388 556 -551 637 -70 35 -106 38 -132 9z"/>
</g>
</svg>
